<svg width="94" height="94" viewBox="0 0 94 94" fill="none" xmlns="http://www.w3.org/2000/svg">
<path d="M47.0005 64.4883C48.2079 64.4883 49.1865 63.5096 49.1865 62.3023C49.1865 61.0949 48.2079 60.1162 47.0005 60.1162C45.7931 60.1162 44.8145 61.0949 44.8145 62.3023C44.8145 63.5096 45.7931 64.4883 47.0005 64.4883Z" fill="url(#paint0_linear_1056_4)"/>
<path fill-rule="evenodd" clip-rule="evenodd" d="M8.52539 16.3956C8.52539 13.2566 11.0701 10.7119 14.2091 10.7119H79.7905C82.9295 10.7119 85.4742 13.2566 85.4742 16.3956V64.4887C85.4742 67.6276 82.9295 70.1724 79.7905 70.1724H54.9835L55.8579 80.6654H62.3021C63.0266 80.6654 63.6138 81.2526 63.6138 81.977C63.6138 82.7015 63.0266 83.2887 62.3021 83.2887H54.6597C54.6529 83.2887 54.6459 83.2887 54.6392 83.2887H39.3605C39.3535 83.2887 39.3467 83.2887 39.3397 83.2887H31.6975C30.973 83.2887 30.3859 82.7015 30.3859 81.977C30.3859 81.2526 30.973 80.6654 31.6975 80.6654H38.1417L39.0162 70.1724H14.2091C11.0701 70.1724 8.52539 67.6276 8.52539 64.4887V16.3956ZM82.851 16.3956V54.4328H11.1486V16.3956C11.1486 14.7054 12.5189 13.3352 14.2091 13.3352H79.7905C81.4808 13.3352 82.851 14.7054 82.851 16.3956ZM82.851 57.0561H11.1486V64.4887C11.1486 66.1789 12.5189 67.5491 14.2091 67.5491H40.4233C40.4345 67.5489 40.4458 67.5489 40.457 67.5491H53.5426C53.5538 67.5489 53.5649 67.5489 53.5761 67.5491H79.7905C81.4808 67.5491 82.851 66.1789 82.851 64.4887V57.0561ZM40.7742 80.6654H53.2255L52.351 70.1724H41.6486L40.7742 80.6654Z" fill="url(#paint1_linear_1056_4)"/>
<defs>
<linearGradient id="paint0_linear_1056_4" x1="44.9907" y1="60.1162" x2="49.3969" y2="63.4034" gradientUnits="userSpaceOnUse">
<stop stop-color="#00B7EE"/>
<stop offset="1" stop-color="#0DD7D2"/>
</linearGradient>
<linearGradient id="paint1_linear_1056_4" x1="11.6277" y1="10.7119" x2="85.8815" y2="69.4446" gradientUnits="userSpaceOnUse">
<stop stop-color="#00B7EE"/>
<stop offset="1" stop-color="#0DD7D2"/>
</linearGradient>
</defs>
</svg>
