<svg width="93" height="93" viewBox="0 0 93 93" fill="none" xmlns="http://www.w3.org/2000/svg">
<path d="M83.678 48.0784C83.4834 47.5809 83.0076 47.2349 82.4669 47.2349H82.4452C78.9631 47.2349 75.9569 48.2514 74.0104 50.0249C73.275 46.6293 72.2152 43.3418 70.9176 40.487C69.2955 36.9616 67.6734 34.9502 65.9431 34.2798V18.513C68.0194 18.4698 69.6848 16.7612 69.6848 14.6632C69.6848 12.5437 67.9545 10.8135 65.835 10.8135H64.6455H25.8234H23.9634C21.8438 10.8135 20.1136 12.5437 20.1136 14.6632C20.1136 16.7828 21.8438 18.513 23.9634 18.513H24.5257V37.113H23.9634C21.8438 37.113 20.1136 38.8432 20.1136 40.9628C20.1136 41.9793 20.5029 42.9525 21.2383 43.6879C21.9736 44.4232 22.9252 44.8125 23.9634 44.8125H24.5257V57.2702C24.2445 57.4216 24.0283 57.6812 23.9201 57.9839L20.3299 68.4086H14.4903C13.928 68.4086 13.4522 68.7546 13.2576 69.2737L9.36454 80.5851C9.23477 80.9744 9.29965 81.4286 9.53756 81.753C9.77547 82.0991 10.1864 82.2937 10.5973 82.2937H31.9224H53.2476C53.6585 82.2937 54.0694 82.0991 54.3073 81.753C54.5452 81.407 54.6101 80.9744 54.4803 80.5851L52.2959 74.2049C54.1127 75.9784 56.4269 76.7786 58.6762 77.0598V80.996C58.6762 81.7098 59.2601 82.2937 59.9738 82.2937H69.0143C69.728 82.2937 70.312 81.7098 70.312 80.996V76.9949C72.6478 76.6705 75.0269 75.8053 76.8652 73.9237C79.6769 71.0039 80.1527 66.8081 80.2608 63.0881C80.2824 62.0067 80.2392 60.8821 80.1743 59.8223C80.0445 57.1837 79.9148 54.6965 80.9962 52.5121C81.5585 51.4091 82.3371 50.3925 83.332 49.5058C83.7429 49.1598 83.8727 48.5758 83.678 48.0784ZM68.5601 41.59C70.0741 44.9423 71.2636 49.0084 71.9341 53.0528C71.1338 54.956 70.8959 57.0539 70.7013 58.9788C70.658 59.4546 70.5931 59.9088 70.5499 60.363C69.9443 65.0346 69.5766 66.6567 69.1441 67.7814C69.0792 67.9544 68.9062 68.4086 68.6034 69.0142C67.6517 70.8958 66.2676 72.5612 64.4724 73.9886C62.699 72.626 61.3148 71.0039 60.3631 69.1439C60.0603 68.56 59.8873 68.1274 59.8008 67.9112C59.3683 66.7865 59.0222 65.2293 58.4166 60.5144C58.3517 60.0602 58.3085 59.606 58.2652 59.1302C58.0706 57.3135 57.8543 55.3237 57.1622 53.507C57.6596 50.2412 58.5248 46.9537 59.6278 43.9691C59.9306 43.1472 60.2766 42.347 60.601 41.6116C61.0552 40.6384 61.5094 39.7949 61.9203 39.1028C62.8936 37.5456 63.8236 36.6805 64.559 36.6588C64.5806 36.6588 64.5806 36.6588 64.6022 36.6588C65.1213 36.6588 66.5271 37.1779 68.5601 41.59ZM22.709 14.6632C22.709 13.9712 23.2713 13.4088 23.9634 13.4088H25.8234H64.6455H65.835C66.5271 13.4088 67.0894 13.9712 67.0894 14.6632C67.0894 15.3553 66.5271 15.9177 65.835 15.9177H23.9634C23.2713 15.9177 22.709 15.3553 22.709 14.6632ZM27.121 18.513H63.3478V34.2798C62.2231 34.6691 61.1634 35.6207 60.1469 37.113H27.121V18.513ZM23.0766 41.8495C22.8387 41.6116 22.709 41.2872 22.709 40.9628C22.709 40.2707 23.2713 39.7084 23.9634 39.7084H58.6329C58.5031 39.9679 58.3734 40.2491 58.2436 40.5302C58.0057 41.0709 57.7678 41.6332 57.5299 42.2172H23.9634C23.639 42.2172 23.3145 42.0874 23.0766 41.8495ZM56.5999 44.8125C56.0159 46.586 55.5185 48.446 55.1076 50.3277C53.161 48.446 50.1115 47.4079 46.5429 47.4079H46.5213C45.9806 47.4079 45.5048 47.7323 45.3101 48.2514C45.1155 48.7705 45.2452 49.3112 45.6562 49.6788C46.651 50.5656 47.4297 51.5821 47.992 52.6851C49.0734 54.8479 48.9436 57.3567 48.8138 59.9953C48.749 61.0767 48.7057 62.1798 48.7273 63.2612C48.7706 64.9481 48.9003 66.7216 49.2896 68.4302H43.515L39.9248 57.9839C39.7517 57.4649 39.2543 57.1188 38.692 57.1188H27.121V44.8125H56.5999ZM31.9224 77.0381L29.8462 71.0039H33.9771L31.9224 77.0381ZM26.0829 59.6925H37.7836L40.7899 68.4086H35.8371H28.051H23.0766L26.0829 59.6925ZM12.4141 79.72L15.4204 71.0039H21.2815H22.5792H22.6008H25.845H27.1427L30.149 79.72H12.4141ZM33.7392 79.72L36.7455 71.0039H48.4462L51.4524 79.72H33.7392ZM51.3227 63.1746C51.301 62.1798 51.3443 61.1849 51.4092 60.1035C51.5606 57.2486 51.712 54.2856 50.3062 51.5172C50.1115 51.1063 49.8736 50.717 49.6357 50.3493C51.128 50.6953 52.7501 51.3874 53.8099 52.7284C55.1724 54.4802 55.4536 56.9891 55.7131 59.4114C55.7564 59.9088 55.8213 60.3846 55.8862 60.8388C56.4485 65.2293 56.8594 67.3272 57.4217 68.8411C57.5299 69.1007 57.7462 69.6414 58.0922 70.3335C58.8924 71.9123 59.9522 73.3398 61.2715 74.6158C58.8708 74.6591 55.9294 74.2481 54.0262 72.28C51.7985 70.0307 51.4092 66.4188 51.3227 63.1746ZM61.2715 79.72V77.2112C62.4827 77.1895 63.5857 77.0598 64.4941 76.9084C65.4024 77.0381 66.5055 77.1679 67.695 77.1679V79.7416L61.2715 79.72ZM78.682 51.3658C77.2762 54.1558 77.4276 57.0972 77.579 59.9521C77.6438 61.0119 77.6871 62.0284 77.6655 63.0232C77.579 66.2458 77.1897 69.8577 74.9836 72.1286C73.0587 74.1184 70.1173 74.5725 67.7166 74.5725C69.0359 73.2532 70.1173 71.7825 70.9176 70.1605C71.2636 69.4684 71.4799 68.9277 71.588 68.6681C72.0855 67.3488 72.4964 65.6186 73.1236 60.6658C73.1885 60.19 73.2317 59.7142 73.2966 59.2384C73.5562 56.816 73.8373 54.3072 75.1999 52.5553C76.2597 51.2144 77.8601 50.5223 79.3741 50.1763C79.1145 50.5656 78.8766 50.9549 78.682 51.3658ZM64.6022 47.2565C65.2078 47.2565 65.6836 47.0402 65.9864 46.8672C66.6136 46.4995 67.3922 46.6942 67.7599 47.3214C68.1276 47.9486 67.9329 48.7272 67.3057 49.0949C66.7434 49.4409 65.8134 49.8302 64.6022 49.8518C63.391 49.8518 62.4394 49.4409 61.8771 49.0949C61.2715 48.7272 61.0552 47.927 61.4445 47.3214C61.8122 46.7158 62.6124 46.4995 63.218 46.8888C63.4992 47.0619 63.975 47.2565 64.6022 47.2565ZM67.7599 54.8263C68.1276 55.4318 67.9329 56.2321 67.3057 56.5998C66.7434 56.9458 65.8134 57.3567 64.6022 57.3567C63.391 57.3567 62.4394 56.9458 61.8771 56.5998C61.2715 56.2321 61.0552 55.4318 61.4445 54.8263C61.8122 54.2207 62.6124 54.0044 63.218 54.3937C63.5208 54.5667 63.9966 54.783 64.6022 54.783C65.2078 54.783 65.6836 54.5667 65.9864 54.3937C66.592 54.026 67.3922 54.2207 67.7599 54.8263ZM67.7599 62.3312C68.1276 62.9367 67.9329 63.737 67.3057 64.1046C66.7434 64.4507 65.8134 64.8616 64.6022 64.8616C63.391 64.8616 62.4394 64.4507 61.8771 64.1046C61.2715 63.737 61.0552 62.9367 61.4445 62.3312C61.8122 61.7256 62.6124 61.5093 63.218 61.8986C63.5208 62.0716 63.9966 62.2879 64.6022 62.2879C65.2078 62.2879 65.6836 62.0716 65.9864 61.8986C66.592 61.5093 67.3922 61.7256 67.7599 62.3312ZM46.0455 21.1732C45.8076 20.8056 45.3966 20.5677 44.9424 20.5677C44.4883 20.5677 44.0773 20.8056 43.8394 21.1732C43.169 22.233 39.8599 27.5967 39.8599 29.9325C39.8599 32.7442 42.1524 35.0151 44.9424 35.0151C47.7324 35.0151 50.025 32.7225 50.025 29.9325C50.025 27.5751 46.6943 22.2114 46.0455 21.1732Z" fill="url(#paint0_linear_1057_35)"/>
<defs>
<linearGradient id="paint0_linear_1057_35" x1="12.3011" y1="10.8135" x2="85.1275" y2="67.4152" gradientUnits="userSpaceOnUse">
<stop stop-color="#00B7EE"/>
<stop offset="1" stop-color="#0DD7D2"/>
</linearGradient>
</defs>
</svg>
