<svg width="94" height="94" viewBox="0 0 94 94" fill="none" xmlns="http://www.w3.org/2000/svg">
<path fill-rule="evenodd" clip-rule="evenodd" d="M77.604 13.9905H54.8649C54.7502 10.9528 52.2513 8.52539 49.1854 8.52539H16.3947C13.2556 8.52539 10.7109 11.0701 10.7109 14.2091V27.3254C10.7109 30.4643 13.2556 33.0091 16.3947 33.0091H24.9202V40.4417C24.9202 40.9254 25.1865 41.3699 25.613 41.5981C26.0395 41.8263 26.5569 41.8014 26.9594 41.5329L39.3506 33.2723C40.0335 35.6453 42.2206 37.3812 44.8133 37.3812H54.2533L67.0392 45.905C67.4417 46.1735 67.9591 46.1984 68.3856 45.9702C68.8121 45.742 69.0784 45.2975 69.0784 44.8138V37.3812H77.604C80.7429 37.3812 83.2877 34.8364 83.2877 31.6975V19.6742C83.2877 16.5352 80.7429 13.9905 77.604 13.9905ZM13.3342 14.2091C13.3342 12.5189 14.7044 11.1486 16.3947 11.1486H49.1854C50.8022 11.1486 52.126 12.4023 52.2382 13.9905H44.8133C41.6743 13.9905 39.1295 16.5352 39.1295 19.6742V30.4042C38.9483 30.4348 38.7747 30.5032 38.6206 30.6062L27.5435 37.9909V31.6975C27.5435 30.973 26.9563 30.3859 26.2319 30.3859H16.3947C14.7044 30.3859 13.3342 29.0156 13.3342 27.3254V14.2091ZM44.8133 16.6138C43.123 16.6138 41.7528 17.984 41.7528 19.6742V31.6975C41.7528 33.3877 43.123 34.758 44.8133 34.758H54.6505C54.9095 34.758 55.1627 34.8347 55.378 34.9783L66.4551 42.363V36.0696C66.4551 35.3451 67.0423 34.758 67.7668 34.758H77.604C79.2942 34.758 80.6644 33.3877 80.6644 31.6975V19.6742C80.6644 17.984 79.2942 16.6138 77.604 16.6138H44.8133Z" fill="url(#paint0_linear_1056_14)"/>
<path fill-rule="evenodd" clip-rule="evenodd" d="M20.5488 56.8375C20.5488 52.4912 24.0723 48.9678 28.4186 48.9678C32.7649 48.9678 36.2884 52.4912 36.2884 56.8375C36.2884 61.1838 32.7649 64.7073 28.4186 64.7073C24.0723 64.7073 20.5488 61.1838 20.5488 56.8375ZM28.4186 51.591C25.521 51.591 23.1721 53.9399 23.1721 56.8375C23.1721 59.7351 25.521 62.0841 28.4186 62.0841C31.3162 62.0841 33.6651 59.7351 33.6651 56.8375C33.6651 53.9399 31.3162 51.591 28.4186 51.591Z" fill="url(#paint1_linear_1056_14)"/>
<path fill-rule="evenodd" clip-rule="evenodd" d="M12.8984 78.6977C12.8984 72.5402 17.8899 67.5488 24.0473 67.5488H32.7915C38.9489 67.5488 43.9403 72.5402 43.9403 78.6977V81.9767C43.9403 82.7012 43.3531 83.2884 42.6287 83.2884H14.2101C13.4857 83.2884 12.8984 82.7012 12.8984 81.9767V78.6977ZM24.0473 70.1721C19.3387 70.1721 15.5217 73.9891 15.5217 78.6977V80.6651H41.317V78.6977C41.317 73.9891 37.5 70.1721 32.7915 70.1721H24.0473Z" fill="url(#paint2_linear_1056_14)"/>
<path fill-rule="evenodd" clip-rule="evenodd" d="M65.5807 48.9678C61.2344 48.9678 57.7109 52.4912 57.7109 56.8375C57.7109 61.1838 61.2344 64.7073 65.5807 64.7073C69.927 64.7073 73.4505 61.1838 73.4505 56.8375C73.4505 52.4912 69.927 48.9678 65.5807 48.9678ZM60.3342 56.8375C60.3342 53.9399 62.6831 51.591 65.5807 51.591C68.4783 51.591 70.8272 53.9399 70.8272 56.8375C70.8272 59.7351 68.4783 62.0841 65.5807 62.0841C62.6831 62.0841 60.3342 59.7351 60.3342 56.8375Z" fill="url(#paint3_linear_1056_14)"/>
<path fill-rule="evenodd" clip-rule="evenodd" d="M50.0605 78.6977C50.0605 72.5402 55.0519 67.5488 61.2094 67.5488H69.9536C76.111 67.5488 81.1024 72.5402 81.1024 78.6977V81.9767C81.1024 82.7012 80.5152 83.2884 79.7908 83.2884H51.3722C50.6477 83.2884 50.0605 82.7012 50.0605 81.9767V78.6977ZM61.2094 70.1721C56.5009 70.1721 52.6838 73.9891 52.6838 78.6977V80.6651H78.4792V78.6977C78.4792 73.9891 74.6621 70.1721 69.9536 70.1721H61.2094Z" fill="url(#paint4_linear_1056_14)"/>
<defs>
<linearGradient id="paint0_linear_1056_14" x1="13.637" y1="8.52539" x2="50.6782" y2="61.8652" gradientUnits="userSpaceOnUse">
<stop stop-color="#00B7EE"/>
<stop offset="1" stop-color="#0DD7D2"/>
</linearGradient>
<linearGradient id="paint1_linear_1056_14" x1="21.1834" y1="48.9678" x2="37.0457" y2="60.8015" gradientUnits="userSpaceOnUse">
<stop stop-color="#00B7EE"/>
<stop offset="1" stop-color="#0DD7D2"/>
</linearGradient>
<linearGradient id="paint2_linear_1056_14" x1="14.1499" y1="67.5488" x2="29.5363" y2="90.1874" gradientUnits="userSpaceOnUse">
<stop stop-color="#00B7EE"/>
<stop offset="1" stop-color="#0DD7D2"/>
</linearGradient>
<linearGradient id="paint3_linear_1056_14" x1="58.3455" y1="48.9678" x2="74.2078" y2="60.8015" gradientUnits="userSpaceOnUse">
<stop stop-color="#00B7EE"/>
<stop offset="1" stop-color="#0DD7D2"/>
</linearGradient>
<linearGradient id="paint4_linear_1056_14" x1="51.312" y1="67.5488" x2="66.6984" y2="90.1874" gradientUnits="userSpaceOnUse">
<stop stop-color="#00B7EE"/>
<stop offset="1" stop-color="#0DD7D2"/>
</linearGradient>
</defs>
</svg>
