<svg width="94" height="94" viewBox="0 0 94 94" fill="none" xmlns="http://www.w3.org/2000/svg">
<path d="M73.3421 16.3956C73.3421 15.6712 72.7549 15.084 72.0304 15.084C71.3062 15.084 70.7188 15.6712 70.7188 16.3956V17.3016C68.5953 17.432 66.8926 19.18 66.8926 21.3459C66.8926 23.5971 68.7324 25.3995 70.9739 25.3995H73.0942C73.9087 25.3995 74.5459 26.0512 74.5437 26.8261C74.5416 27.6177 73.8829 28.2503 73.1331 28.2446L72.0823 28.2357C72.0652 28.235 72.0479 28.2348 72.0304 28.2348C72.0208 28.2348 72.011 28.2348 72.0014 28.235L68.2971 28.2035C67.5727 28.1974 66.9805 28.7796 66.9743 29.504C66.9682 30.2283 67.5504 30.8205 68.2748 30.8266L70.7188 30.8476V31.6979C70.7188 32.4224 71.3062 33.0096 72.0304 33.0096C72.7549 33.0096 73.3421 32.4224 73.3421 31.6979V30.8631C75.4477 30.7582 77.1609 28.9955 77.167 26.8335C77.1733 24.5828 75.3362 22.7762 73.0942 22.7762H70.9739C70.1561 22.7762 69.5158 22.1235 69.5158 21.3459C69.5158 20.5693 70.1553 19.917 70.9739 19.917H71.9688C71.9893 19.9179 72.0099 19.9184 72.0304 19.9184C72.0512 19.9184 72.0718 19.9179 72.0921 19.917H75.2662C75.9905 19.917 76.5779 19.3298 76.5779 18.6054C76.5779 17.881 75.9905 17.2937 75.2662 17.2937H73.3421V16.3956Z" fill="url(#paint0_linear_1057_20)"/>
<path d="M34.811 40.2763C35.3232 39.7639 35.3232 38.9337 34.811 38.4213C34.2988 37.9091 33.4681 37.9091 32.9559 38.4213L17.6537 53.7236C17.1415 54.2358 17.1415 55.0665 17.6537 55.5787C18.1659 56.0908 18.9964 56.0908 19.5086 55.5787L34.811 40.2763Z" fill="url(#paint1_linear_1057_20)"/>
<path fill-rule="evenodd" clip-rule="evenodd" d="M28.1992 53.012C28.1992 50.7785 30.0099 48.9678 32.2434 48.9678C34.4769 48.9678 36.2876 50.7785 36.2876 53.012C36.2876 55.2454 34.4769 57.0561 32.2434 57.0561C30.0099 57.0561 28.1992 55.2454 28.1992 53.012ZM32.2434 51.591C31.4586 51.591 30.8225 52.2272 30.8225 53.012C30.8225 53.7968 31.4586 54.4329 32.2434 54.4329C33.0282 54.4329 33.6643 53.7968 33.6643 53.012C33.6643 52.2272 33.0282 51.591 32.2434 51.591Z" fill="url(#paint2_linear_1057_20)"/>
<path fill-rule="evenodd" clip-rule="evenodd" d="M20.22 36.9443C17.9864 36.9443 16.1758 38.755 16.1758 40.9885C16.1758 43.222 17.9864 45.0327 20.22 45.0327C22.4535 45.0327 24.2642 43.222 24.2642 40.9885C24.2642 38.755 22.4535 36.9443 20.22 36.9443ZM18.799 40.9885C18.799 40.2037 19.4352 39.5676 20.22 39.5676C21.0047 39.5676 21.6409 40.2037 21.6409 40.9885C21.6409 41.7733 21.0047 42.4095 20.22 42.4095C19.4352 42.4095 18.799 41.7733 18.799 40.9885Z" fill="url(#paint3_linear_1057_20)"/>
<path d="M73.3421 62.3019C73.3421 61.5774 72.7549 60.9902 72.0304 60.9902C71.3062 60.9902 70.7188 61.5774 70.7188 62.3019V63.2078C68.5953 63.3383 66.8926 65.0862 66.8926 67.2522C66.8926 69.5034 68.7324 71.3057 70.9739 71.3057H73.0942C73.9087 71.3057 74.5459 71.9574 74.5437 72.7324C74.5416 73.5239 73.8829 74.1566 73.1331 74.1509L72.0823 74.1419C72.0709 74.1415 72.0595 74.1413 72.0479 74.141C72.0422 74.141 72.0363 74.141 72.0304 74.141C72.0208 74.141 72.011 74.1411 72.0014 74.1413L68.2971 74.1098C67.5727 74.1037 66.9805 74.6858 66.9743 75.4103C66.9682 76.1345 67.5504 76.7267 68.2748 76.7328L70.7188 76.7538V77.6042C70.7188 78.3286 71.3062 78.9158 72.0304 78.9158C72.7549 78.9158 73.3421 78.3286 73.3421 77.6042V76.7693C75.4477 76.6644 77.1609 74.9018 77.167 72.7398C77.1733 70.489 75.3362 68.6825 73.0942 68.6825H70.9739C70.1561 68.6825 69.5158 68.0297 69.5158 67.2522C69.5158 66.4755 70.1553 65.8231 70.9739 65.8231H71.9688C71.9893 65.8242 72.0099 65.8247 72.0304 65.8247C72.0512 65.8247 72.0718 65.8242 72.0921 65.8231H75.2662C75.9905 65.8231 76.5779 65.236 76.5779 64.5115C76.5779 63.7873 75.9905 63.1999 75.2662 63.1999H73.3421V62.3019Z" fill="url(#paint4_linear_1057_20)"/>
<path fill-rule="evenodd" clip-rule="evenodd" d="M56.6194 24.0463C56.6194 15.4744 63.5684 8.52539 72.1403 8.52539C80.7123 8.52539 87.6613 15.4744 87.6613 24.0463C87.6613 32.6182 80.7123 39.5673 72.1403 39.5673C66.5867 39.5673 61.7142 36.6504 58.9716 32.265L46.6434 38.5794C47.7189 41.1681 48.3124 44.0108 48.3124 46.9998C48.3124 49.9827 47.7209 52.8274 46.6489 55.4231L58.9716 61.7346C61.7142 57.3492 66.5867 54.4324 72.1403 54.4324C80.7123 54.4324 87.6613 61.3814 87.6613 69.9533C87.6613 78.5252 80.7123 85.4742 72.1403 85.4742C63.5684 85.4742 56.6194 78.5252 56.6194 69.9533C56.6194 67.8704 57.0297 65.8833 57.7739 64.0687L45.504 57.784C41.7241 64.524 34.5106 69.0789 26.2334 69.0789C14.0394 69.0789 4.1543 59.1938 4.1543 46.9998C4.1543 34.7969 14.0485 25.03 26.2334 25.03C34.4977 25.03 41.7082 29.5228 45.4927 36.2213L57.7739 29.9309C57.0297 28.1163 56.6194 26.1292 56.6194 24.0463ZM72.1403 11.1486C65.0171 11.1486 59.2427 16.9231 59.2427 24.0463C59.2427 31.1696 65.0171 36.944 72.1403 36.944C79.2636 36.944 85.038 31.1696 85.038 24.0463C85.038 16.9231 79.2636 11.1486 72.1403 11.1486ZM26.2334 27.6533C15.4792 27.6533 6.77755 36.2637 6.77755 46.9998C6.77755 57.7449 15.4882 66.4556 26.2334 66.4556C36.9784 66.4556 45.6892 57.7449 45.6892 46.9998C45.6892 36.2637 36.9876 27.6533 26.2334 27.6533ZM72.1403 57.0556C65.0171 57.0556 59.2427 62.8301 59.2427 69.9533C59.2427 77.0765 65.0171 82.851 72.1403 82.851C79.2636 82.851 85.038 77.0765 85.038 69.9533C85.038 62.8301 79.2636 57.0556 72.1403 57.0556Z" fill="url(#paint5_linear_1057_20)"/>
<defs>
<linearGradient id="paint0_linear_1057_20" x1="67.3068" y1="15.084" x2="80.9329" y2="20.9105" gradientUnits="userSpaceOnUse">
<stop stop-color="#00B7EE"/>
<stop offset="1" stop-color="#0DD7D2"/>
</linearGradient>
<linearGradient id="paint1_linear_1057_20" x1="17.9922" y1="38.0371" x2="36.0577" y2="51.5145" gradientUnits="userSpaceOnUse">
<stop stop-color="#00B7EE"/>
<stop offset="1" stop-color="#0DD7D2"/>
</linearGradient>
<linearGradient id="paint2_linear_1057_20" x1="28.5253" y1="48.9678" x2="36.6768" y2="55.049" gradientUnits="userSpaceOnUse">
<stop stop-color="#00B7EE"/>
<stop offset="1" stop-color="#0DD7D2"/>
</linearGradient>
<linearGradient id="paint3_linear_1057_20" x1="16.5019" y1="36.9443" x2="24.6533" y2="43.0256" gradientUnits="userSpaceOnUse">
<stop stop-color="#00B7EE"/>
<stop offset="1" stop-color="#0DD7D2"/>
</linearGradient>
<linearGradient id="paint4_linear_1057_20" x1="67.3068" y1="60.9902" x2="80.9329" y2="66.8168" gradientUnits="userSpaceOnUse">
<stop stop-color="#00B7EE"/>
<stop offset="1" stop-color="#0DD7D2"/>
</linearGradient>
<linearGradient id="paint5_linear_1057_20" x1="7.52098" y1="8.52539" x2="86.6509" y2="72.59" gradientUnits="userSpaceOnUse">
<stop stop-color="#00B7EE"/>
<stop offset="1" stop-color="#0DD7D2"/>
</linearGradient>
</defs>
</svg>
