<svg width="94" height="95" viewBox="0 0 94 95" fill="none" xmlns="http://www.w3.org/2000/svg">
<path fill-rule="evenodd" clip-rule="evenodd" d="M16.1758 53.7765C16.1758 53.052 16.763 52.4648 17.4874 52.4648H32.7897C33.5142 52.4648 34.1014 53.052 34.1014 53.7765V82.1951C34.1014 82.9195 33.5142 83.5067 32.7897 83.5067H17.4874C16.763 83.5067 16.1758 82.9195 16.1758 82.1951V53.7765ZM18.799 55.0881V80.8834H31.4781V55.0881H18.799Z" fill="url(#paint0_linear_1056_9)"/>
<path fill-rule="evenodd" clip-rule="evenodd" d="M38.0371 30.8233C38.0371 30.0989 38.6243 29.5117 39.3487 29.5117H54.6511C55.3755 29.5117 55.9627 30.0989 55.9627 30.8233V82.1954C55.9627 82.9199 55.3755 83.5071 54.6511 83.5071H39.3487C38.6243 83.5071 38.0371 82.9199 38.0371 82.1954V30.8233ZM40.6604 32.135V80.8838H53.3394V32.135H40.6604Z" fill="url(#paint1_linear_1056_9)"/>
<path fill-rule="evenodd" clip-rule="evenodd" d="M59.8984 12.2423C59.8984 11.5179 60.4856 10.9307 61.2101 10.9307H76.5124C77.2368 10.9307 77.824 11.5179 77.824 12.2423V82.1958C77.824 82.9202 77.2368 83.5074 76.5124 83.5074H61.2101C60.4856 83.5074 59.8984 82.9202 59.8984 82.1958V12.2423ZM62.5217 13.5539V80.8842H75.2008V13.5539H62.5217Z" fill="url(#paint2_linear_1056_9)"/>
<path fill-rule="evenodd" clip-rule="evenodd" d="M83.2877 82.1954C83.2877 81.471 82.7005 80.8838 81.9761 80.8838H12.0226C11.2982 80.8838 10.7109 81.471 10.7109 82.1954C10.7109 82.9199 11.2982 83.507 12.0226 83.507H81.9761C82.7005 83.507 83.2877 82.9199 83.2877 82.1954Z" fill="url(#paint3_linear_1056_9)"/>
<defs>
<linearGradient id="paint0_linear_1056_9" x1="40.8781" y1="51.1559" x2="43.6916" y2="72.1537" gradientUnits="userSpaceOnUse">
<stop stop-color="#00C4FF"/>
<stop offset="1" stop-color="#0DD7D2"/>
</linearGradient>
<linearGradient id="paint1_linear_1056_9" x1="62.7394" y1="27.2348" x2="70.9584" y2="62.4994" gradientUnits="userSpaceOnUse">
<stop stop-color="#00C4FF"/>
<stop offset="1" stop-color="#0DD7D2"/>
</linearGradient>
<linearGradient id="paint2_linear_1056_9" x1="84.6008" y1="7.8702" x2="98.8573" y2="53.3789" gradientUnits="userSpaceOnUse">
<stop stop-color="#00C4FF"/>
<stop offset="1" stop-color="#0DD7D2"/>
</linearGradient>
<linearGradient id="paint3_linear_1056_9" x1="110.725" y1="80.7732" x2="110.73" y2="82.5795" gradientUnits="userSpaceOnUse">
<stop stop-color="#00C4FF"/>
<stop offset="1" stop-color="#0DD7D2"/>
</linearGradient>
</defs>
</svg>
